<?xml version="1.0" encoding="UTF-8" standalone="no"?><!DOCTYPE svg PUBLIC "-//W3C//DTD SVG 1.1//EN" "http://www.w3.org/Graphics/SVG/1.1/DTD/svg11.dtd"><svg width="100%" height="100%" viewBox="0 0 1366 768" version="1.1" xmlns="http://www.w3.org/2000/svg" xmlns:xlink="http://www.w3.org/1999/xlink" xml:space="preserve" xmlns:serif="http://www.serif.com/" style="fill-rule:evenodd;clip-rule:evenodd;stroke-linejoin:round;stroke-miterlimit:2;"><g opacity="0.05"><path d="M1096.86,392.861c-13.694,-7.851 -35.89,-7.483 -49.322,0.813l-183.965,113.659c-13.434,8.299 -13.215,21.508 0.482,29.357l154.439,88.496c13.696,7.851 35.891,7.481 49.322,-0.815l183.967,-113.658c13.431,-8.297 13.213,-21.51 -0.485,-29.357l-154.438,-88.495Z" style="fill:#334752;fill-rule:nonzero;"/></g><path d="M1045.95,232.156l-162.891,-93.746c-1.948,-1.122 -3.761,-1.462 -5.261,-1.131c-3.665,0.509 -8.327,3.42 -13.725,6.247c-0.017,0.011 -0.034,0.027 -0.051,0.04c-1.733,0.956 -2.817,3.053 -2.817,6.053l0,366.875c0,5.911 4.191,13.161 9.314,16.111l162.893,93.744c1.704,0.981 3.3,1.356 4.679,1.216c2.516,-0.083 5.684,-1.125 9.682,-3.102c3.422,-1.834 5.066,-3.232 5.86,-4.206c0.048,-0.059 0.096,-0.122 0.145,-0.18c0.008,-0.01 0.014,-0.02 0.02,-0.028c0.925,-1.135 1.468,-2.792 1.468,-4.908l0,-366.875c0,-5.912 -4.192,-13.162 -9.316,-16.11" style="fill:#e6e4eb;fill-rule:nonzero;"/><path d="M1042.72,254.089c0,-5.911 -4.19,-13.162 -9.313,-16.11l-162.893,-93.744c-5.123,-2.95 -9.315,-0.527 -9.315,5.385l0,366.875c0,5.911 4.192,13.161 9.315,16.111l162.893,93.744c5.123,2.948 9.313,0.525 9.313,-5.386l0,-366.875Z" style="fill:#314584;fill-rule:nonzero;"/><path d="M938.711,548.602c-1.968,-1.133 -3.579,-0.203 -3.579,2.07l0,7.526c0,2.272 1.611,5.058 3.579,6.19l19.266,11.089c1.967,1.131 3.578,0.201 3.578,-2.07l0,-7.529c0,-2.271 -1.611,-5.057 -3.578,-6.19l-19.266,-11.086Z" style="fill:#5767c7;fill-rule:nonzero;"/><path d="M870.298,170.979c-2.133,-1.228 -3.881,-0.217 -3.881,2.245l0,321.544c0,2.464 1.748,5.483 3.881,6.712l162.416,93.471c2.134,1.229 3.881,0.219 3.881,-2.245l0,-321.543c0,-2.463 -1.747,-5.483 -3.881,-6.713l-162.416,-93.471Z" style="fill:#c7e6ff;fill-rule:nonzero;"/><path d="M929.85,188.033c-1.451,-0.835 -2.64,-0.148 -2.64,1.523l0,2.636c0,1.675 1.189,3.726 2.64,4.561l45.63,26.26c1.45,0.834 2.636,0.15 2.636,-1.525l0,-2.635c0,-1.673 -1.186,-3.724 -2.636,-4.559l-45.63,-26.261Z" style="fill:#5768c8;fill-rule:nonzero;"/><path d="M1044.81,404.892c0,2.147 1.494,2.982 3.322,1.857l1.416,-0.871c1.828,-1.125 3.324,-3.8 3.324,-5.944l0,-15.307c0,-2.145 -1.496,-2.978 -3.324,-1.855l-1.416,0.87c-1.828,1.127 -3.322,3.801 -3.322,5.946l0,15.304Z" style="fill:#334787;fill-rule:nonzero;"/><path d="M943.025,175.35c-1.722,-0.99 -4.512,-0.949 -6.203,0.089l-0.3,0.185c-1.69,1.042 -1.666,2.703 0.055,3.694l36.588,21.056c1.72,0.99 4.511,0.949 6.204,-0.092l0.297,-0.183c1.69,-1.041 1.668,-2.702 -0.054,-3.692l-36.587,-21.057Z" style="fill:#334787;fill-rule:nonzero;"/><path d="M1044.81,356.58c0,2.146 1.494,2.983 3.322,1.858l1.416,-0.873c1.828,-1.124 3.324,-3.799 3.324,-5.944l0,-61.276c0,-2.145 -1.496,-2.982 -3.324,-1.857l-1.416,0.872c-1.828,1.124 -3.322,3.8 -3.322,5.944l0,61.276Z" style="fill:#334787;fill-rule:nonzero;"/><path d="M876.102,167.115c1.901,2.925 5.062,4.244 7.055,2.948c1.993,-1.294 2.069,-4.718 0.168,-7.642c-1.903,-2.925 -5.059,-4.247 -7.053,-2.95c-1.996,1.296 -2.07,4.716 -0.17,7.644" style="fill:#5768c8;fill-rule:nonzero;"/><path d="M887.858,173.204c0.485,0.748 1.294,1.087 1.803,0.754c0.511,-0.331 0.531,-1.205 0.044,-1.953c-0.487,-0.75 -1.294,-1.087 -1.804,-0.756c-0.51,0.331 -0.529,1.207 -0.043,1.955" style="fill:#5768c8;fill-rule:nonzero;"/><path d="M1026.28,252.76c0.719,1.104 1.912,1.604 2.665,1.112c0.754,-0.487 0.783,-1.781 0.065,-2.886c-0.72,-1.109 -1.914,-1.606 -2.667,-1.118c-0.753,0.491 -0.783,1.785 -0.063,2.892" style="fill:#5768c8;fill-rule:nonzero;"/><g opacity="0.1"><path d="M987.675,392.877c-2.563,-1.476 -4.66,-0.263 -4.66,2.693l0,119.92c0,2.956 2.097,6.581 4.66,8.055l42.633,24.537c2.561,1.474 4.656,0.263 4.656,-2.693l0,-119.922c0,-2.955 -2.095,-6.579 -4.656,-8.054l-42.633,-24.536Z" style="fill:#334752;fill-rule:nonzero;"/></g><path d="M1022.1,423.122l-42.634,-24.535c-1.293,-0.747 -2.465,-0.803 -3.31,-0.3c-4.16,1.68 -5.977,2.762 -6.629,3.2c-0.882,0.47 -1.435,1.523 -1.435,3.038l0,119.922c0,2.956 2.095,6.58 4.655,8.054l42.636,24.537c0.667,0.385 1.301,0.583 1.876,0.617c0.333,0.045 2.069,0.16 5.123,-1.708c1.614,-1.017 2.445,-1.524 2.852,-1.767c0.113,-0.054 0.22,-0.118 0.323,-0.191c0.024,-0.014 0.034,-0.019 0.034,-0.019l0.003,-0.006c0.721,-0.533 1.163,-1.513 1.163,-2.867l0,-119.921c0,-2.955 -2.094,-6.58 -4.657,-8.054" style="fill:#e6e4eb;fill-rule:nonzero;"/><path d="M972.745,401.833c-2.561,-1.476 -4.655,-0.263 -4.655,2.692l0,119.922c0,2.956 2.094,6.58 4.655,8.054l42.636,24.537c2.561,1.474 4.656,0.262 4.656,-2.693l0,-119.923c0,-2.955 -2.095,-6.58 -4.656,-8.053l-42.636,-24.536Z" style="fill:#edf2f6;fill-rule:nonzero;"/><path d="M981.375,437.037l19.48,11.208l0,-9.633l-19.48,-11.211l0,9.636Z" style="fill:#6a6d89;fill-rule:nonzero;"/><path d="M1012.87,480.714l0,-9.635l-33.514,-19.286l0,9.636l33.514,19.285Z" style="fill:#6a6d89;fill-rule:nonzero;"/><path d="M1003.54,479.221l-29.855,-17.183l0,9.636l29.855,17.182l0,-9.635Z" style="fill:#6a6d89;fill-rule:nonzero;"/><path d="M979.359,488.446l33.514,19.287l0,-9.635l-33.514,-19.289l0,9.637Z" style="fill:#6a6d89;fill-rule:nonzero;"/><path d="M973.687,498.692l39.187,22.552l0,-9.635l-39.188,-22.552l0,9.635Z" style="fill:#6a6d89;fill-rule:nonzero;"/><path d="M973.687,502.567l0,9.633l19.332,11.128l0,-9.638l-19.332,-11.123Z" style="fill:#6a6d89;fill-rule:nonzero;"/><g opacity="0.1"><path d="M891.091,218.221c-2.562,-1.475 -4.658,-0.261 -4.658,2.695l0,119.922c0,2.954 2.096,6.579 4.658,8.053l42.633,24.537c2.561,1.474 4.658,0.261 4.658,-2.695l0,-119.92c0,-2.956 -2.097,-6.579 -4.658,-8.055l-42.633,-24.537Z" style="fill:#334752;fill-rule:nonzero;"/></g><path d="M925.514,248.467l-42.632,-24.537c-1.293,-0.743 -2.466,-0.801 -3.312,-0.298c-4.16,1.682 -5.977,2.761 -6.627,3.199c-0.884,0.473 -1.437,1.523 -1.437,3.04l0,119.92c0,2.956 2.095,6.581 4.658,8.055l42.633,24.538c0.667,0.382 1.301,0.582 1.878,0.617c0.333,0.046 2.069,0.16 5.123,-1.71c1.614,-1.016 2.444,-1.525 2.852,-1.765c0.111,-0.057 0.218,-0.12 0.321,-0.191c0.024,-0.014 0.034,-0.02 0.034,-0.02c0,0 0.005,-0.006 0.005,-0.009c0.719,-0.529 1.161,-1.512 1.161,-2.864l0,-119.921c0,-2.955 -2.094,-6.578 -4.657,-8.054" style="fill:#e6e4eb;fill-rule:nonzero;"/><path d="M876.164,227.179c-2.563,-1.475 -4.658,-0.263 -4.658,2.692l0,119.921c0,2.956 2.095,6.581 4.658,8.055l42.633,24.538c2.561,1.471 4.658,0.26 4.658,-2.696l0,-119.92c0,-2.954 -2.097,-6.58 -4.658,-8.054l-42.633,-24.536Z" style="fill:#edf2f6;fill-rule:nonzero;"/><path d="M884.792,262.382l19.48,11.211l0,-9.634l-19.48,-11.212l0,9.635Z" style="fill:#6a6d89;fill-rule:nonzero;"/><path d="M916.289,306.06l0,-9.636l-33.513,-19.286l0,9.634l33.513,19.288Z" style="fill:#6a6d89;fill-rule:nonzero;"/><path d="M906.96,304.565l-29.855,-17.183l0,9.635l29.855,17.184l0,-9.636Z" style="fill:#6a6d89;fill-rule:nonzero;"/><path d="M882.776,313.793l33.513,19.284l0,-9.633l-33.513,-19.288l0,9.637Z" style="fill:#6a6d89;fill-rule:nonzero;"/><path d="M877.105,324.036l39.184,22.551l0,-9.634l-39.184,-22.553l0,9.636Z" style="fill:#6a6d89;fill-rule:nonzero;"/><path d="M877.105,327.912l0,9.634l19.33,11.126l0,-9.635l-19.331,-11.125Z" style="fill:#6a6d89;fill-rule:nonzero;"/><g opacity="0.1"><path d="M1032.33,367.108c0.09,0.017 0.183,0.048 0.268,0.056c0.127,0.011 0.243,-0.003 0.361,-0.015c0.059,-0.005 0.121,0.002 0.177,-0.007c0.114,-0.022 0.216,-0.068 0.321,-0.112c0.689,-0.287 1.135,-1.03 1.135,-2.155l0,-64.11c0,-2.046 -1.451,-4.558 -3.227,-5.579l-72.545,-41.751c-1.044,-0.6 -1.965,-0.543 -2.556,0.009c-0.059,0.056 -0.117,0.11 -0.166,0.173c-0.058,0.073 -0.105,0.153 -0.154,0.236c-0.041,0.07 -0.083,0.136 -0.116,0.212c-0.047,0.107 -0.081,0.23 -0.114,0.353c-0.018,0.069 -0.044,0.134 -0.059,0.21c-0.038,0.209 -0.061,0.43 -0.061,0.672l0,64.11c0,2.048 1.451,4.558 3.226,5.579l39.657,22.825l0.008,0.016l19.977,11.5l0,-0.015l6.281,3.616l0.233,0.132l6.389,3.679c0.22,0.125 0.432,0.222 0.639,0.293c0.114,0.038 0.219,0.051 0.326,0.073" style="fill:#334752;fill-rule:nonzero;"/></g><path d="M948.126,258.569c-0.255,0.028 -0.705,0.286 -3.178,1.337c-1.952,0.829 -2.831,1.454 -3.211,1.789c-0.482,0.375 -0.774,1.048 -0.774,1.965l0,64.109c0,2.048 1.451,4.559 3.226,5.579l61.007,35.127l5.148,2.947l6.39,3.68c0.867,0.494 1.653,0.548 2.234,0.238c0.381,-0.106 1.022,-0.309 2.088,-0.698c2.066,-0.733 3.244,-1.648 3.834,-2.228c0.533,-0.358 0.862,-1.052 0.862,-2.024l0,-64.108c0,-2.048 -1.452,-4.558 -3.227,-5.58l-72.544,-41.751c-0.512,-0.294 -0.996,-0.432 -1.426,-0.432c-0.15,0 -0.293,0.017 -0.429,0.05Z" style="fill:url(#_Linear1);fill-rule:nonzero;"/><path d="M941.633,261.804l-0.435,0.618c-0.047,0.108 -0.081,0.232 -0.115,0.353c-0.02,0.071 -0.044,0.135 -0.058,0.211c-0.039,0.209 -0.062,0.432 -0.062,0.674l0,64.109c0,2.048 1.451,4.559 3.226,5.579l39.658,22.824l0.01,0.014l19.974,11.503l0,-0.014l6.513,3.747l6.39,3.68c0.22,0.124 0.433,0.221 0.639,0.292c0.112,0.037 0.219,0.049 0.327,0.072c0.089,0.017 0.182,0.05 0.265,0.056l0.54,-0.024c0.114,-0.02 0.218,-0.067 0.321,-0.108c0.69,-0.288 1.135,-1.033 1.135,-2.156l0,-64.109c0,-2.047 -1.452,-4.558 -3.227,-5.58l-72.545,-41.75c-0.507,-0.291 -0.985,-0.428 -1.411,-0.428c-0.45,0 -0.842,0.153 -1.145,0.437Z" style="fill:url(#_Linear2);fill-rule:nonzero;"/><path d="M989.981,333.467c5.447,8.384 14.501,12.17 20.221,8.454c5.716,-3.713 5.933,-13.522 0.481,-21.908c-5.449,-8.385 -14.5,-12.177 -20.222,-8.458c-5.716,3.712 -5.933,13.522 -0.481,21.912" style="fill:#ffe600;fill-rule:nonzero;"/><path d="M1015.57,358.757l-20.151,-34.483l-10.452,8.21l-21.197,-42.097c0,0 -12.367,7.755 -22.806,14.227l0,23.155c0,2.048 1.451,4.558 3.226,5.579l39.657,22.824l0.01,0.014l19.975,11.503l0,-0.015l6.283,3.616l0.23,0.132l6.39,3.68c0.22,0.124 0.433,0.22 0.639,0.292c0.112,0.036 0.218,0.049 0.327,0.072c0.089,0.017 0.182,0.049 0.265,0.056c0.126,0.01 0.245,-0.004 0.363,-0.014c0.057,-0.005 0.121,0.002 0.177,-0.01c0.114,-0.02 0.217,-0.068 0.321,-0.109c0.689,-0.287 1.135,-1.032 1.135,-2.155l0,-12.003l-4.392,-2.474Z" style="fill:#6a6d89;fill-rule:nonzero;"/><g opacity="0.1"><path d="M954.788,513.727c0.058,0.012 0.114,0.031 0.168,0.038c0.08,0.006 0.154,-0.004 0.23,-0.01c0.037,-0.004 0.077,0 0.112,-0.007c0.073,-0.014 0.137,-0.043 0.205,-0.07c0.434,-0.181 0.717,-0.652 0.717,-1.363l0,-40.601c0,-1.295 -0.919,-2.887 -2.043,-3.532l-45.944,-26.442c-0.66,-0.38 -1.244,-0.344 -1.619,0.007c-0.035,0.036 -0.072,0.068 -0.104,0.108c-0.036,0.047 -0.066,0.098 -0.098,0.151c-0.024,0.042 -0.051,0.084 -0.073,0.133c-0.03,0.068 -0.05,0.146 -0.071,0.221c-0.011,0.047 -0.029,0.088 -0.039,0.136c-0.023,0.132 -0.038,0.273 -0.038,0.427l0,40.596c0,1.299 0.918,2.889 2.042,3.536l25.116,14.455l0.007,0.009l12.649,7.284l0,-0.009l3.978,2.288l0.148,0.085l4.046,2.33c0.138,0.078 0.274,0.139 0.404,0.183c0.072,0.025 0.139,0.034 0.207,0.047" style="fill:#334752;fill-rule:nonzero;"/></g><path d="M901.463,444.99c-0.162,0.02 -0.446,0.183 -2.013,0.848c-1.236,0.524 -1.794,0.92 -2.033,1.134c-0.305,0.237 -0.492,0.663 -0.492,1.243l0,40.602c0,1.295 0.92,2.885 2.044,3.532l38.634,22.243l3.263,1.869l4.047,2.327c0.548,0.318 1.047,0.35 1.415,0.152c0.238,-0.068 0.646,-0.195 1.322,-0.44c1.306,-0.466 2.055,-1.045 2.427,-1.413c0.337,-0.226 0.544,-0.665 0.544,-1.279l0,-40.6c0,-1.297 -0.916,-2.888 -2.041,-3.534l-45.944,-26.44c-0.325,-0.187 -0.632,-0.274 -0.905,-0.274c-0.094,0 -0.183,0.01 -0.268,0.03Z" style="fill:url(#_Linear3);fill-rule:nonzero;"/><path d="M897.351,447.04l-0.275,0.393l-0.109,0.357c-0.027,0.13 -0.042,0.271 -0.042,0.425l0,40.602c0,1.295 0.92,2.885 2.044,3.532l25.114,14.455l0.008,0.009l12.651,7.284l0,-0.012l4.124,2.376l4.047,2.327c0.136,0.082 0.272,0.142 0.405,0.187l0.374,0.082l0.341,-0.014c0.073,-0.015 0.139,-0.043 0.204,-0.071c0.435,-0.184 0.717,-0.652 0.717,-1.365l0,-40.599c0,-1.296 -0.918,-2.888 -2.041,-3.532l-45.944,-26.44c-0.321,-0.186 -0.623,-0.273 -0.892,-0.273c-0.285,0 -0.533,0.097 -0.726,0.277Z" style="fill:url(#_Linear4);fill-rule:nonzero;"/><g opacity="0.1"><path d="M931.948,439.837c0.058,0.01 0.115,0.029 0.168,0.033c0.081,0.009 0.154,0 0.231,-0.005c0.036,-0.006 0.077,0 0.113,-0.008c0.071,-0.013 0.136,-0.044 0.202,-0.07c0.435,-0.184 0.719,-0.653 0.719,-1.367l0,-40.597c0,-1.298 -0.919,-2.888 -2.044,-3.533l-45.942,-26.442c-0.662,-0.38 -1.246,-0.344 -1.619,0.005c-0.037,0.035 -0.073,0.07 -0.105,0.111c-0.036,0.044 -0.066,0.096 -0.097,0.147c-0.026,0.046 -0.053,0.088 -0.075,0.136c-0.03,0.069 -0.049,0.144 -0.069,0.222c-0.012,0.045 -0.029,0.085 -0.039,0.134c-0.024,0.133 -0.039,0.273 -0.039,0.426l0,40.601c0,1.296 0.919,2.884 2.043,3.534l25.115,14.454l0.006,0.008l12.649,7.286l0,-0.013l3.979,2.292l0.149,0.083l4.044,2.329c0.139,0.08 0.273,0.142 0.404,0.186c0.073,0.024 0.14,0.032 0.207,0.048" style="fill:#334752;fill-rule:nonzero;"/></g><path d="M878.623,371.098c-0.16,0.02 -0.445,0.181 -2.014,0.848c-1.234,0.523 -1.792,0.921 -2.03,1.132c-0.306,0.238 -0.492,0.665 -0.492,1.246l0,40.6c0,1.297 0.918,2.885 2.043,3.534l38.634,22.245l3.263,1.866l4.046,2.329c0.547,0.314 1.046,0.348 1.414,0.151c0.24,-0.069 0.647,-0.198 1.322,-0.441c1.308,-0.465 2.056,-1.045 2.429,-1.413c0.337,-0.225 0.545,-0.667 0.545,-1.28l0,-40.6c0,-1.296 -0.918,-2.886 -2.043,-3.534l-45.944,-26.44c-0.323,-0.186 -0.631,-0.274 -0.903,-0.274c-0.095,0 -0.185,0.01 -0.27,0.031Z" style="fill:url(#_Linear5);fill-rule:nonzero;"/><path d="M874.512,373.149l-0.276,0.392l-0.11,0.355c-0.024,0.132 -0.039,0.273 -0.039,0.428l0,40.6c0,1.297 0.918,2.885 2.043,3.534l25.115,14.451l0.006,0.012l12.65,7.282l0,-0.01l8.172,4.705c0.138,0.078 0.273,0.141 0.404,0.185l0.377,0.082l0.34,-0.015c0.072,-0.011 0.137,-0.043 0.203,-0.073c0.436,-0.179 0.718,-0.649 0.718,-1.361l0,-40.601c0,-1.295 -0.917,-2.886 -2.042,-3.532l-45.943,-26.442c-0.32,-0.184 -0.622,-0.27 -0.891,-0.27c-0.286,0 -0.535,0.097 -0.727,0.278Z" style="fill:url(#_Linear6);fill-rule:nonzero;"/><path d="M831.389,163.031c-0.254,0.029 -0.703,0.286 -3.178,1.335c-1.952,0.831 -2.83,1.454 -3.21,1.791c-0.482,0.376 -0.776,1.047 -0.776,1.965l0,64.11c0,2.046 1.452,4.558 3.227,5.58l48.622,27.982l11.05,31.044l6.484,-3.308l0,-17.646l6.39,3.678c0.867,0.499 1.653,0.55 2.234,0.238c0.379,-0.106 1.021,-0.306 2.088,-0.694c2.065,-0.735 3.244,-1.65 3.833,-2.231c0.534,-0.357 0.862,-1.052 0.862,-2.023l0,-64.108c0,-2.049 -1.451,-4.56 -3.226,-5.579l-72.547,-41.752c-0.51,-0.293 -0.995,-0.431 -1.426,-0.431c-0.149,0 -0.292,0.017 -0.427,0.049Z" style="fill:url(#_Linear7);fill-rule:nonzero;"/><path d="M824.225,168.122l0,64.11c0,2.046 1.452,4.558 3.227,5.58l39.658,22.822l19.984,36.307l0,-24.806l12.904,7.427c1.775,1.02 3.227,0.181 3.227,-1.865l0,-64.11c0,-2.047 -1.452,-4.56 -3.227,-5.579l-72.546,-41.751c-0.513,-0.296 -1,-0.436 -1.431,-0.436c-1.062,0 -1.796,0.845 -1.796,2.301Z" style="fill:url(#_Linear8);fill-rule:nonzero;"/><path d="M852.392,226.719l-7.622,-9.582c-0.261,-0.312 -0.441,-0.587 -0.549,-0.827c-0.106,-0.24 -0.158,-0.484 -0.158,-0.729l0,-0.45c0,-0.247 0.052,-0.434 0.158,-0.564c0.108,-0.13 0.288,-0.223 0.549,-0.281l7.622,-1.634c0.031,0 0.113,-0.006 0.242,-0.015c0.13,-0.008 0.246,0.012 0.344,0.065c0.146,0.077 0.268,0.19 0.365,0.337c0.098,0.148 0.147,0.301 0.147,0.457l0,1.071c0,0.191 -0.046,0.322 -0.135,0.397c-0.09,0.076 -0.231,0.131 -0.426,0.167l-6.597,1.396l6.597,8.273c0.209,0.268 0.359,0.481 0.44,0.645c0.079,0.163 0.121,0.334 0.121,0.506l0,1.071c0,0.174 -0.049,0.284 -0.147,0.327c-0.097,0.048 -0.219,0.035 -0.365,-0.041c-0.114,-0.058 -0.311,-0.255 -0.586,-0.589" style="fill:#fff;fill-rule:nonzero;"/><path d="M855.932,232.726c-0.098,-0.155 -0.146,-0.299 -0.146,-0.439c0,-0.07 0.024,-0.16 0.073,-0.274l8.352,-16.906c0.148,-0.212 0.361,-0.245 0.636,-0.098l0.903,0.485c0.131,0.069 0.245,0.182 0.343,0.336c0.098,0.157 0.147,0.303 0.147,0.44c0,0.067 -0.025,0.158 -0.074,0.269l-8.379,16.842c-0.032,0.089 -0.101,0.153 -0.206,0.195c-0.106,0.042 -0.249,0.017 -0.427,-0.074l-0.881,-0.445c-0.129,-0.068 -0.244,-0.176 -0.341,-0.331" style="fill:#fff;fill-rule:nonzero;"/><path d="M868.657,235.188c-0.097,-0.153 -0.146,-0.306 -0.146,-0.46l0,-1.052c0,-0.169 0.041,-0.294 0.122,-0.373c0.081,-0.075 0.226,-0.136 0.44,-0.181l6.594,-1.296l-6.594,-8.177c-0.197,-0.239 -0.339,-0.443 -0.429,-0.61c-0.089,-0.167 -0.133,-0.343 -0.133,-0.532l0,-1.05c0,-0.156 0.044,-0.255 0.133,-0.301c0.09,-0.045 0.21,-0.03 0.356,0.048c0.097,0.051 0.214,0.151 0.353,0.302c0.139,0.151 0.224,0.244 0.255,0.278l7.622,9.484c0.259,0.324 0.444,0.602 0.549,0.835c0.107,0.231 0.158,0.467 0.158,0.701l0,0.431c0,0.237 -0.051,0.416 -0.158,0.537c-0.105,0.123 -0.29,0.201 -0.549,0.235l-7.622,1.539c-0.258,0.055 -0.462,0.044 -0.608,-0.029c-0.132,-0.069 -0.246,-0.178 -0.343,-0.329" style="fill:#fff;fill-rule:nonzero;"/><g opacity="0.1"><path d="M818.973,565.71c-2.501,-1.439 -6.559,-1.381 -9.016,0.132l-19.066,11.728c-2.456,1.514 -2.422,3.929 0.079,5.368l62.318,35.863c2.5,1.44 6.557,1.382 9.016,-0.132l19.065,-11.729c2.458,-1.512 2.422,-3.928 -0.078,-5.366l-62.318,-35.864Z" style="fill:#334752;fill-rule:nonzero;"/></g><path d="M841.682,420.22c0,0 -8.116,0.353 -10.908,0.089c-2.795,-0.261 -3.49,3.229 -3.49,3.229l-23.823,1.046l0.09,4.013c0,0 -0.35,2.269 1.396,3.141c1.746,0.875 21.813,-5.495 23.471,-5.58c2.268,0.696 3.492,-0.266 10.821,-3.491c4.936,-2.175 4.331,-2.53 3.41,-2.53c-0.446,0 -0.967,0.083 -0.967,0.083Z" style="fill:url(#_Linear9);fill-rule:nonzero;"/><path d="M818.6,387.192c0,0 -6.965,2.102 -10.941,14.257c-3.976,12.153 -5.966,17.903 -6.076,20.554c-0.111,2.65 -1.106,7.846 1.769,9.283c2.872,1.436 5.084,-0.222 6.52,-1.88c1.437,-1.656 0.772,-3.426 2.098,-6.852c1.327,-3.424 2.098,-8.509 4.642,-10.276c2.542,-1.768 5.966,-6.407 5.966,-6.407l-0.109,-18.679l-3.869,0Z" style="fill:url(#_Linear10);fill-rule:nonzero;"/><path d="M826.677,576.256c-2.757,0.172 -8.833,1.198 -11.209,1.63c-0.511,0.107 -0.599,-0.265 -0.599,-0.265l-1.015,-0.158l-1.267,-0.179l-2.152,-0.257l-1.045,0.772c0,0 -0.283,2.49 -0.192,3.946c0.096,1.455 -0.569,3.003 0.192,3.258c0.759,0.259 2.755,0.86 4.178,0.259c1.425,-0.6 1.235,-2.143 2.09,-2.062c0.854,0.089 5.89,-1.197 9.309,-2.911c3.304,-1.66 4.394,-4.042 1.971,-4.042c-0.083,0 -0.17,0.003 -0.261,0.009Z" style="fill:url(#_Linear11);fill-rule:nonzero;"/><path d="M814.898,577.798c0,0.758 -1.232,1.373 -2.754,1.373c-1.522,0 -2.755,-0.615 -2.755,-1.373c0,-0.757 1.233,-1.37 2.755,-1.37c1.522,0 2.754,0.613 2.754,1.37" style="fill:#131316;fill-rule:nonzero;"/><path d="M819.483,462.456c-6.002,1.152 -4.331,4.453 -4.331,7.54c0,3.087 -1.782,19.47 -3.979,40.844c-2.024,19.672 -1.009,28.258 -1.246,43.335c-0.192,11.994 -1.051,18.185 -1.397,20.226c-0.084,0.253 -0.145,0.515 -0.145,0.788c0,1.705 1.754,3.088 3.915,3.088c2.167,0 3.919,-1.383 3.919,-3.088c0,0 2.298,-30.074 2.702,-33.274c2.017,-15.938 7.391,-34.994 9.41,-42.118c2.018,-7.123 10.685,-31.879 10.685,-31.879c0,0 -4.639,-5.963 -14.449,-5.964c-1.563,0 -3.256,0.151 -5.084,0.502Z" style="fill:url(#_Linear12);fill-rule:nonzero;"/><path d="M834.61,375.822c-0.305,0.103 -0.068,2.631 -0.579,7.186c-0.512,4.554 -3.702,11.479 -4.164,12.351c0,0 3.056,2.167 3.618,2.628c0.563,0.461 4.659,2.458 7.833,3.583c1.803,0.639 2.678,-0.199 3.042,-1.037c0.276,-0.637 0.259,-1.275 0.132,-1.264c-3.226,0.254 -4.25,-10.188 0.565,-14.489c2.025,-1.898 0.509,-5.784 0.509,-5.784l-2.458,-1.075l-5.374,-2.868c0,0 -2.817,0.668 -3.124,0.769Z" style="fill:url(#_Linear13);fill-rule:nonzero;"/><path d="M837.888,365.43c0,0 -3.79,2.119 -3.79,2.221c0,0.099 -4.708,10.611 -4.708,10.952c0,0.342 6.243,8.125 16.141,8.158c1.245,0 2.252,-1.011 2.252,-2.253c0,-0.272 -0.056,-0.532 -0.145,-0.776c-0.093,-0.546 -0.195,-1.287 -0.195,-1.885c0,-1.094 0.615,-1.57 0.341,-2.116c-0.273,-0.544 -0.682,-0.888 -0.476,-1.434c0.062,-0.172 0.154,-0.436 0.252,-0.717c0.583,-0.234 1.078,-0.683 1.078,-1.263c0,-0.751 -2.422,-5.058 -3.56,-6.014c-0.098,-0.819 -0.216,-1.825 -0.33,-2.686c-0.239,-1.81 -0.686,-2.937 -2.151,-2.937c-1.466,0 -4.709,0.75 -4.709,0.75Z" style="fill:url(#_Linear14);fill-rule:nonzero;"/><path d="M865.329,592.377c-3.441,0.237 -11.041,1.659 -14.009,2.254c-0.638,0.151 -0.751,-0.361 -0.751,-0.361l-1.268,-0.224l-1.581,-0.245l-2.695,-0.358l-1.306,1.071c0,0 -0.352,3.442 -0.235,5.459c0.117,2.022 -0.714,4.158 0.235,4.515c0.951,0.356 3.444,1.187 5.227,0.356c1.78,-0.83 1.541,-2.968 2.61,-2.849c1.068,0.117 7.363,-1.661 11.637,-4.037c4.131,-2.297 5.49,-5.593 2.464,-5.593c-0.104,0 -0.213,0.004 -0.328,0.012Z" style="fill:url(#_Linear15);fill-rule:nonzero;"/><path d="M850.608,594.514c0,1.047 -1.544,1.899 -3.445,1.899c-1.9,0 -3.444,-0.852 -3.444,-1.899c0,-1.049 1.544,-1.899 3.444,-1.899c1.901,0 3.445,0.85 3.445,1.899" style="fill:#131316;fill-rule:nonzero;"/><path d="M820.85,470.945c0,2.444 0.542,4.714 1.461,6.644c2.535,6.759 12.856,14.935 13.974,25.414c1.188,11.159 4.632,15.91 5.103,22.438c0.477,6.531 0.953,36.571 1.544,46.187c0.592,9.619 0.923,21.043 0.923,21.043c0,1.525 1.435,2.758 3.203,2.758c1.771,0 3.204,-1.233 3.204,-2.758c0,0 3.475,-48.827 3.714,-59.749c0.234,-10.922 0.118,-11.634 0.236,-25.288c0.137,-15.868 -0.467,-41.429 -0.467,-41.429l-13.852,2.247c-0.883,-5.756 -4.767,-10.093 -9.425,-10.093c-5.311,0 -9.618,5.636 -9.618,12.586Z" style="fill:url(#_Linear16);fill-rule:nonzero;"/><path d="M816.612,388.962c-2.785,4.739 -1.324,10.054 0.111,21.989c1.436,11.935 1.549,25.747 0,35.916c-0.899,5.907 -2.39,12.927 -1.645,17.127c0.005,0.051 -0.005,0.09 0,0.14c0.038,0.395 0.166,0.779 0.341,1.159c0.358,0.982 0.916,1.713 1.737,2.1c3.219,2.605 9.867,4.422 17.826,4.422c7.53,0 13.769,-1.44 17.124,-3.701c1.499,-0.52 3.141,-2.27 3.076,-7.323c-0.113,-8.73 -3.76,-18.453 -1.33,-28.402c2.432,-9.943 3.869,-13.812 3.869,-13.812l-1.437,-18.345c0,0 -5.719,-3.371 -11.934,-4.529c-4.751,-0.888 -7.211,-1.326 -11.715,-3.648c-1.121,-0.578 -3.289,-3.645 -8.676,-5.138c0,0 -1.13,-0.341 -2.553,-0.341c-1.635,0 -3.657,0.45 -4.794,2.386Z" style="fill:url(#_Linear17);fill-rule:nonzero;"/><path d="M843.671,365.536c0.685,-3.621 -0.093,-11.014 -0.093,-11.014c0,-0.58 -0.502,-1.047 -1.127,-1.047c-9.073,-0.323 -18.219,11.143 -19.999,13.496c-0.967,1.124 -1.563,2.52 -1.563,4.06c0,0.471 0.055,0.928 0.158,1.372c-0.01,0.044 -0.023,0.08 -0.033,0.124c0.625,4.432 7.613,11.674 7.613,11.674l0.06,-0.005c0.752,0.748 1.812,1.223 3,1.223c2.034,0 3.719,-1.382 4.048,-3.195c0.007,-0.02 0.017,-0.037 0.024,-0.059c0.25,-1.062 0.797,-3.516 0.549,-7.982c-0.085,-1.46 4.484,-2.857 4.601,-2.879l0.059,-0.038c0.86,-0.299 1.524,-0.953 1.802,-1.773c0.005,-0.007 0.007,-0.01 0.01,-0.015c0.004,-0.019 0.007,-0.028 0.012,-0.048c0.044,-0.151 0.075,-0.303 0.096,-0.456c0.188,-0.933 0.189,-1.12 0.783,-3.438" style="fill:#334752;fill-rule:nonzero;"/><path d="M919.275,427.197c0,0 -10.278,0.441 -13.815,0.11c-3.535,-0.331 -4.419,4.088 -4.419,4.088l-30.168,1.327l0.109,5.082c0,0 -0.44,2.874 1.769,3.981c2.21,1.104 27.627,-6.963 29.727,-7.071c2.871,0.882 4.421,-0.333 13.704,-4.423c6.244,-2.751 5.488,-3.201 4.323,-3.201c-0.566,0 -1.23,0.107 -1.23,0.107Z" style="fill:url(#_Linear18);fill-rule:nonzero;"/><path d="M844.517,406.862c0,0.529 0.057,1.043 0.165,1.539c-0.129,5.571 16.495,21.7 18.978,24.681c2.486,2.984 3.254,5.976 6.465,8.563c3.509,2.736 4.479,1.186 3.786,-2.043c-0.645,-2.993 1.438,-4.646 0.693,-8.458c-0.305,-1.548 -2.904,-3.699 -8.375,-16.379c-3.226,-7.481 -5.796,-11.025 -7.368,-12.685c-1.478,-1.732 -3.741,-2.842 -6.277,-2.842c-4.457,0 -8.067,3.413 -8.067,7.624Z" style="fill:url(#_Linear19);fill-rule:nonzero;"/><defs><linearGradient id="_Linear1" x1="0" y1="0" x2="1" y2="0" gradientUnits="userSpaceOnUse" gradientTransform="matrix(-51.0531,135.246,-135.246,-51.0531,1011.12,243.487)"><stop offset="0" style="stop-color:#15eded;stop-opacity:1"/><stop offset="1" style="stop-color:#029cf5;stop-opacity:1"/></linearGradient><linearGradient id="_Linear2" x1="0" y1="0" x2="1" y2="0" gradientUnits="userSpaceOnUse" gradientTransform="matrix(-20.1523,94.4921,-94.4921,-20.1523,987.562,285.156)"><stop offset="0" style="stop-color:#15eded;stop-opacity:1"/><stop offset="1" style="stop-color:#029cf5;stop-opacity:1"/></linearGradient><linearGradient id="_Linear3" x1="0" y1="0" x2="1" y2="0" gradientUnits="userSpaceOnUse" gradientTransform="matrix(-0.378357,87.7296,-87.7296,-0.378357,924.062,414.72)"><stop offset="0" style="stop-color:#46eeaa;stop-opacity:1"/><stop offset="1" style="stop-color:#2cbfc7;stop-opacity:1"/></linearGradient><linearGradient id="_Linear4" x1="0" y1="0" x2="1" y2="0" gradientUnits="userSpaceOnUse" gradientTransform="matrix(19.6635,90.3759,-90.3759,19.6635,916.654,458.62)"><stop offset="0" style="stop-color:#46eeaa;stop-opacity:1"/><stop offset="1" style="stop-color:#2cbfc7;stop-opacity:1"/></linearGradient><linearGradient id="_Linear5" x1="0" y1="0" x2="1" y2="0" gradientUnits="userSpaceOnUse" gradientTransform="matrix(-0.378372,87.7301,-87.7301,-0.378372,901.225,340.827)"><stop offset="0" style="stop-color:#ff7c6e;stop-opacity:1"/><stop offset="1" style="stop-color:#f5317f;stop-opacity:1"/></linearGradient><linearGradient id="_Linear6" x1="0" y1="0" x2="1" y2="0" gradientUnits="userSpaceOnUse" gradientTransform="matrix(19.6635,90.3759,-90.3759,19.6635,893.816,384.728)"><stop offset="0" style="stop-color:#ff7c6e;stop-opacity:1"/><stop offset="1" style="stop-color:#f5317f;stop-opacity:1"/></linearGradient><linearGradient id="_Linear7" x1="0" y1="0" x2="1" y2="0" gradientUnits="userSpaceOnUse" gradientTransform="matrix(-48.7792,91.5113,-91.5113,-48.7792,913.305,133.906)"><stop offset="0" style="stop-color:#46eeaa;stop-opacity:1"/><stop offset="1" style="stop-color:#2cbfc7;stop-opacity:1"/></linearGradient><linearGradient id="_Linear8" x1="0" y1="0" x2="1" y2="0" gradientUnits="userSpaceOnUse" gradientTransform="matrix(-12.6154,137.524,-137.524,-12.6154,866.402,193.732)"><stop offset="0" style="stop-color:#46eeaa;stop-opacity:1"/><stop offset="1" style="stop-color:#2cbfc7;stop-opacity:1"/></linearGradient><linearGradient id="_Linear9" x1="0" y1="0" x2="1" y2="0" gradientUnits="userSpaceOnUse" gradientTransform="matrix(41.9925,-9.06129,9.06129,41.9925,799.773,429.322)"><stop offset="0" style="stop-color:#f8a980;stop-opacity:1"/><stop offset="1" style="stop-color:#ffdf75;stop-opacity:1"/></linearGradient><linearGradient id="_Linear10" x1="0" y1="0" x2="1" y2="0" gradientUnits="userSpaceOnUse" gradientTransform="matrix(21.251,0,0,21.251,801.327,409.512)"><stop offset="0" style="stop-color:#aff57a;stop-opacity:1"/><stop offset="1" style="stop-color:#54d169;stop-opacity:1"/></linearGradient><linearGradient id="_Linear11" x1="0" y1="0" x2="1" y2="0" gradientUnits="userSpaceOnUse" gradientTransform="matrix(19.2305,0,0,19.2305,809.02,580.884)"><stop offset="0" style="stop-color:#334752;stop-opacity:1"/><stop offset="1" style="stop-color:#6a6d89;stop-opacity:1"/></linearGradient><linearGradient id="_Linear12" x1="0" y1="0" x2="1" y2="0" gradientUnits="userSpaceOnUse" gradientTransform="matrix(141.226,-56.3579,56.3579,141.226,734.771,552.809)"><stop offset="0" style="stop-color:#15eded;stop-opacity:1"/><stop offset="1" style="stop-color:#029cf5;stop-opacity:1"/></linearGradient><linearGradient id="_Linear13" x1="0" y1="0" x2="1" y2="0" gradientUnits="userSpaceOnUse" gradientTransform="matrix(-8.17657,-16.5759,16.5759,-8.17657,842.795,397.472)"><stop offset="0" style="stop-color:#f8a980;stop-opacity:1"/><stop offset="1" style="stop-color:#ffdf75;stop-opacity:1"/></linearGradient><linearGradient id="_Linear14" x1="0" y1="0" x2="1" y2="0" gradientUnits="userSpaceOnUse" gradientTransform="matrix(23.869,-15.2497,15.2497,23.869,833.748,381.281)"><stop offset="0" style="stop-color:#f8a980;stop-opacity:1"/><stop offset="1" style="stop-color:#ffdf75;stop-opacity:1"/></linearGradient><linearGradient id="_Linear15" x1="0" y1="0" x2="1" y2="0" gradientUnits="userSpaceOnUse" gradientTransform="matrix(-1.40932,-7.46106,7.46106,-1.40932,855.921,601.948)"><stop offset="0" style="stop-color:#334752;stop-opacity:1"/><stop offset="1" style="stop-color:#6a6d89;stop-opacity:1"/></linearGradient><linearGradient id="_Linear16" x1="0" y1="0" x2="1" y2="0" gradientUnits="userSpaceOnUse" gradientTransform="matrix(-116.699,-153.499,153.499,-116.699,915.317,617.342)"><stop offset="0" style="stop-color:#15eded;stop-opacity:1"/><stop offset="1" style="stop-color:#029cf5;stop-opacity:1"/></linearGradient><linearGradient id="_Linear17" x1="0" y1="0" x2="1" y2="0" gradientUnits="userSpaceOnUse" gradientTransform="matrix(23.207,92.8284,-92.8284,23.207,821.646,376.108)"><stop offset="0" style="stop-color:#aff57a;stop-opacity:1"/><stop offset="1" style="stop-color:#54d169;stop-opacity:1"/></linearGradient><linearGradient id="_Linear18" x1="0" y1="0" x2="1" y2="0" gradientUnits="userSpaceOnUse" gradientTransform="matrix(58.3488,-8.17778,8.17778,58.3488,866.735,437.765)"><stop offset="0" style="stop-color:#f8a980;stop-opacity:1"/><stop offset="1" style="stop-color:#ffdf75;stop-opacity:1"/></linearGradient><linearGradient id="_Linear19" x1="0" y1="0" x2="1" y2="0" gradientUnits="userSpaceOnUse" gradientTransform="matrix(-27.5394,-46.0659,46.0659,-27.5394,875.254,444.835)"><stop offset="0" style="stop-color:#aff57a;stop-opacity:1"/><stop offset="1" style="stop-color:#54d169;stop-opacity:1"/></linearGradient></defs></svg>